<?xml version="1.0" encoding="utf-8"?>
<!-- Generator: Adobe Illustrator 16.0.0, SVG Export Plug-In . SVG Version: 6.00 Build 0)  -->
<!DOCTYPE svg PUBLIC "-//W3C//DTD SVG 1.1//EN" "http://www.w3.org/Graphics/SVG/1.1/DTD/svg11.dtd">
<svg version="1.1" id="Layer_1" xmlns="http://www.w3.org/2000/svg" x="0px" y="0px"
	 width="135px" height="135px" viewBox="0 0 135 135" style="enable-background:new 0 0 135 135;" xml:space="preserve">
<style type="text/css">
<![CDATA[
	.st0{fill:#465652;}
	.st1{fill:#AAB9BA;}
	.st2{fill:#47C67B;}
	.st3{fill:#AAC8D1;}
	.st4{fill:none;stroke:#E83834;stroke-width:6;stroke-linecap:round;stroke-linejoin:round;stroke-miterlimit:10;}
	.st5{fill:#7BC67B;}
	.st6{fill:#7BC7FF;}
	.st7{fill:#7C34C1;}
	.st8{fill:#7C8D96;}
	.st9{fill:#AD2707;}
	.st10{fill:#ADB8BC;}
	.st11{fill:#107510;}
	.st12{fill:#7FE5D8;}
	.st13{fill:#AF4AD1;}
	.st14{fill:#E02B7E;}
	.st15{fill:#E04038;}
	.st16{fill:#AFD7DD;}
	.st17{fill:#E0A010;}
	.st18{fill:#E0D5A4;}
	.st19{fill:#12B2B2;}
	.st20{fill:#12D66B;}
	.st21{fill:#E1A9FF;}
	.st22{fill:#1362A8;}
	.st23{fill:#E2378D;}
	.st24{fill:#E29C37;}
	.st25{fill:#E2B90E;}
	.st26{fill:#E2BF91;}
	.st27{fill:#E2CBAA;}
	.st28{fill:#14A594;}
	.st29{fill:#E4E9ED;}
	.st30{fill:#4A5D60;}
	.st31{fill:#E5B076;}
	.st32{fill:#E5B1C4;}
	.st33{fill:#E5E4C3;}
	.st34{fill:#4B6466;}
	.st35{fill:#E6FF2E;}
	.st36{fill:#18AA67;}
	.st37{fill:#E86207;}
	.st38{fill:#E8A113;}
	.st39{fill:#E8B5A6;}
	.st40{fill:#E8E8ED;}
	.st41{fill:#4E5154;}
	.st42{fill:#E9F1F4;}
	.st43{fill:#4F4B48;}
	.st44{fill:#4F74E8;}
	.st45{fill:#808E93;}
	.st46{fill:#80949B;}
	.st47{fill:#80EDAC;}
	.st48{fill:#B122E0;}
	.st49{fill:#B2C4CC;}
	.st50{fill:#83D839;}
	.st51{fill:#B3C6C6;}
	.st52{fill:none;stroke:#33363A;stroke-width:3;stroke-linecap:round;stroke-linejoin:round;stroke-miterlimit:10;}
	.st53{fill:#1A8E1C;}
	.st54{fill:#1A93D6;}
	.st55{fill:#B50B0B;}
	.st56{fill:#1AD88F;}
	.st57{fill:#B5DAF4;}
	.st58{fill:#EA7B1F;}
	.st59{fill:#EA81BD;}
	.st60{fill:#87B8D6;}
	.st61{fill:#87C3F4;}
	.st62{fill:#EAC79D;}
	.st63{fill:#EADF11;}
	.st64{fill:#EAE4C5;}
	.st65{fill:#B78094;}
	.st66{fill:#8844D8;}
	.st67{fill:#EBF4F7;}
	.st68{fill:#893015;}
	.st69{fill:#89410B;}
	.st70{fill:#899BA3;}
	.st71{fill:#EDE3B9;}
	.st72{enable-background:new    ;}
	.st73{fill:#50FF9F;}
	.st74{fill:#EEDCF4;}
	.st75{fill:#EFA37D;}
	.st76{fill:#EFA3CC;}
	.st77{fill:#EFC99A;}
	.st78{fill:#54AF79;}
	.st79{fill:#BA503A;}
	.st80{fill:#BA8663;}
	.st81{fill:#8B4FE0;}
	.st82{fill:#58ED9B;}
	.st83{fill:#BC7DFF;}
	.st84{fill:#8D9AA3;}
	.st85{fill:#BCCAD3;}
	.st86{fill:#8DE4FF;}
	.st87{fill:#20B518;}
	.st88{fill:#BF44F2;}
	.st89{fill:#21CEA1;}
	.st90{fill:#BFDAE0;}
	.st91{fill:#F0FBFC;}
	.st92{fill:#F2D9A7;}
	.st93{fill:#F2EAC9;}
	.st94{fill:#24D1AF;}
	.st95{fill:#25931C;}
	.st96{fill:#F4C4B3;}
	.st97{fill:#F4D3A2;}
	.st98{fill:#F4D647;}
	.st99{fill:#F4D7B8;}
	.st100{fill:#F4EC8E;}
	.st101{fill:#5B524D;}
	.st102{fill:#F77819;}
	.st103{fill:#F79AE1;}
	.st104{fill:#5E707A;}
	.st105{fill:#F93585;}
	.st106{fill:#F95D5D;}
	.st107{fill:#F9C19B;}
	.st108{fill:#F9CB58;}
	.st109{fill:#F9D2B2;}
	.st110{fill:#F9F07D;}
	.st111{fill:#F9F1D2;}
	.st112{fill:#F9F4B7;}
	.st113{fill:#F9F9E4;}
	.st114{fill:#5F1DAA;}
	.st115{fill:#5F9AD6;}
	.st116{fill:#C0C0C4;}
	.st117{fill:#91EA57;}
	.st118{fill:#C12727;}
	.st119{fill:#C191A0;}
	.st120{fill:#923BB7;}
	.st121{fill:#93A0A3;}
	.st122{fill:#93F9EA;}
	.st123{fill:#93FF5A;}
	.st124{fill:#C4833D;}
	.st125{fill:#95A2A5;}
	.st126{fill:#965514;}
	.st127{fill:#96562C;}
	.st128{fill:#2AF42F;}
	.st129{fill:#C5D7DD;}
	.st130{fill:#C68510;}
	.st131{fill:#C6A86D;}
	.st132{fill:#C6BB8D;}
	.st133{fill:#2C9DCE;}
	.st134{fill:#FBFCF2;}
	.st135{fill:#FC70B0;}
	.st136{fill:#FCE6C8;}
	.st137{fill:#FCF7E3;}
	.st138{fill:#C90D6B;}
	.st139{fill:#FDFEFF;}
	.st140{fill:#FDFFDC;}
	.st141{fill:#FF1A1A;}
	.st142{fill:#FF5252;}
	.st143{fill:#FF5B00;}
	.st144{fill:#FF6155;}
	.st145{fill:#FF630D;}
	.st146{fill:#FF6666;}
	.st147{fill:#FF7676;}
	.st148{fill:#FF7900;}
	.st149{fill:#FF860D;}
	.st150{fill:#FF8B00;}
	.st151{fill:#FF8F8F;}
	.st152{fill:#FF900B;}
	.st153{fill:#FF908A;}
	.st154{fill:#FF960B;}
	.st155{fill:#FF9C0D;}
	.st156{fill:#FFA9D4;}
	.st157{fill:#FFAA00;}
	.st158{fill:#FFAD40;}
	.st159{fill:#FFAF10;}
	.st160{fill:#FFB000;}
	.st161{fill:#FFBE08;}
	.st162{fill:#FFBF31;}
	.st163{fill:#FFC200;}
	.st164{fill:#FFCAE8;}
	.st165{fill:#FFCCF5;}
	.st166{fill:#FFD00B;}
	.st167{fill:#FFD039;}
	.st168{fill:#FFD400;}
	.st169{fill:#FFD833;}
	.st170{fill:#FFDB80;}
	.st171{fill:#FFDDD2;}
	.st172{fill:#FFE6D4;}
	.st173{fill:#FFE6EB;}
	.st174{fill:#FFE98D;}
	.st175{fill:#FFECD2;}
	.st176{fill:#FFF1D9;}
	.st177{fill:#FFF24D;}
	.st178{fill:#FFF3C2;}
	.st179{fill:#FFF4C7;}
	.st180{fill:#FFF800;}
	.st181{fill:#FFF80D;}
	.st182{fill:#FFF9DE;}
	.st183{fill:#FFFBD7;}
	.st184{fill:#FFFBEB;}
	.st185{fill:#FFFCC0;}
	.st186{fill:#FFFCDC;}
	.st187{fill:#FFFFFA;}
	.st188{fill:#FFFFFF;}
	.st189{fill:#63797F;}
	.st190{fill:#65E529;}
	.st191{fill:#66310E;}
	.st192{fill:#663C17;}
	.st193{fill:#9A5AE5;}
	.st194{fill:#CA30EF;}
	.st195{fill:#6892FC;}
	.st196{fill:#9CFFC4;}
	.st197{fill:#CC4306;}
	.st198{fill:#CC549E;}
	.st199{fill:#9E3256;}
	.st200{fill:#CDFFBB;}
	.st201{fill:#CE86AF;}
	.st202{fill:#CED9DD;}

		.st203{fill:none;stroke:#33363A;stroke-width:3;stroke-linecap:round;stroke-linejoin:round;stroke-miterlimit:10;stroke-dasharray:6;}
	.st204{fill:#CFE1E2;}
	.st205{fill:#33363A;}
	.st206{fill:#34C166;}
	.st207{fill:#364B5B;}
	.st208{fill:#3662CE;}
	.st209{fill:#36C6FF;}
	.st210{fill:#6ADB9A;}
	.st211{fill:#6D5C4D;}
	.st212{fill:#6EBDF9;}
	.st213{fill:#0031FF;}
	.st214{fill:#0062FF;}
	.st215{fill:#0068FF;}
	.st216{fill:#0086FF;}
	.st217{fill:#009BE8;}
	.st218{fill:#00AAFF;}
	.st219{fill:#D271FF;}
	.st220{fill:#D363A9;}
	.st221{fill:#D3964C;}
	.st222{fill:#D3DFE2;}
	.st223{fill:#D3E0E2;}
	.st224{fill:#D3EFF4;}
	.st225{fill:#063B66;}
	.st226{fill:#D60909;}
	.st227{fill:#D61D1D;}
	.st228{fill:#D7F0FF;}
	.st229{fill:#09B285;}
	.st230{fill:#D8D593;}
	.st231{fill:#D8E2EA;}
	.st232{fill:#D8E5EA;}
	.st233{fill:#3E5054;}
	.st234{fill:#D988FF;}
	.st235{fill:#D9E7E8;}
	.st236{fill:#702252;}
	.st237{fill:#70D3E0;}
	.st238{fill:#A02FF2;}
	.st239{fill:#A2F255;}
	.st240{fill:#A35616;}
	.st241{fill:#A3CCCC;}
	.st242{fill:#0A6ADD;}
	.st243{fill:#A5145D;}
	.st244{fill:#A57555;}
	.st245{fill:#77D6FC;}
	.st246{fill:#7815CE;}
	.st247{fill:#A7BBC1;}
	.st248{fill:#DBD279;}
	.st249{fill:#0D5C9E;}
	.st250{fill:#A83C11;}
	.st251{fill:#A8633D;}
	.st252{fill:#A8A3E5;}
	.st253{fill:#DCE6EA;}
	.st254{fill:#DCE7EA;}
	.st255{fill:#A962E8;}
	.st256{fill:#DD2466;}
	.st257{fill:#DDC38A;}
	.st258{fill:#DDD2B1;}
	.st259{fill:#DFE7E8;}
	.st260{fill:#42B1E8;}
	.st261{fill:#436377;}
	.st262{fill:#43B530;}
]]>
</style>
<g>
	<g>
		<g>
			<g>
				<g>
					<g>
						<path class="st108" d="M116.708,78.368c0,20.676-22.031,37.441-49.209,37.441S18.291,99.044,18.291,78.368
							c0-20.68,22.031-45.459,49.209-45.459S116.708,57.688,116.708,78.368z"/>
					</g>
					<g>
						<path class="st24" d="M116.708,78.368c0,20.676-22.031,37.441-49.209,37.441S18.291,99.044,18.291,78.368
							c0-20.68,22.031-34.928,49.209-34.928S116.708,57.688,116.708,78.368z"/>
					</g>
					<g>
						<path class="st127" d="M67.5,101.634c24.06,0,44.073-13.143,48.352-30.504c-0.755-3.318-1.999-6.654-3.672-9.9
							c-5.74,6.557-18.275,21.303-44.68,21.303S28.561,67.786,22.82,61.229c-1.672,3.246-2.916,6.582-3.672,9.9
							C23.427,88.491,43.441,101.634,67.5,101.634z"/>
					</g>
					<g>
						<path class="st251" d="M115.361,69.271c-7.223,8.025-21.248,21.402-47.861,21.402s-40.637-13.377-47.86-21.402
							c-0.175,0.621-0.35,1.24-0.491,1.859c4.279,17.361,24.293,30.504,48.352,30.504c24.06,0,44.073-13.143,48.352-30.504
							C115.71,70.511,115.536,69.892,115.361,69.271z"/>
					</g>
					<g>
						<path class="st205" d="M67.5,103.134c-24.341,0-45.289-13.309-49.808-31.645c-0.056-0.228-0.058-0.465-0.006-0.692
							c0.779-3.42,2.058-6.87,3.801-10.254c0.228-0.441,0.658-0.742,1.151-0.803c0.493-0.058,0.983,0.128,1.311,0.501l0.24,0.274
							c5.826,6.659,17.949,20.517,43.311,20.517c25.365,0,37.487-13.858,43.313-20.519l0.238-0.272
							c0.328-0.373,0.816-0.555,1.311-0.501c0.493,0.061,0.924,0.36,1.151,0.802c1.744,3.385,3.023,6.835,3.801,10.255
							c0.052,0.229,0.05,0.465-0.006,0.692C112.789,89.825,91.842,103.134,67.5,103.134z M20.691,71.115
							c4.374,16.836,23.984,29.019,46.808,29.019c22.825,0,42.435-12.183,46.808-29.019c-0.57-2.393-1.405-4.806-2.493-7.199
							C105.27,71.282,92.518,84.032,67.5,84.032c-25.018,0-37.77-12.751-44.315-20.116C22.098,66.311,21.262,68.723,20.691,71.115z"
							/>
					</g>
					<g>
						<path class="st111" d="M116.708,78.368c0,20.676-22.031,37.441-49.209,37.441S18.291,99.044,18.291,78.368
							c0-20.682,6.262,18.34,49.209,18.34C110.448,96.708,116.708,57.687,116.708,78.368z"/>
					</g>
					<g>
						<path class="st174" d="M116.708,78.368c0,20.676-22.031,27.359-49.209,27.359s-49.209-6.684-49.209-27.359
							c0-20.682,6.262,18.34,49.209,18.34C110.448,96.708,116.708,57.687,116.708,78.368z"/>
					</g>
					<g>
						<path class="st205" d="M67.5,117.31c-27.961,0-50.709-17.469-50.709-38.941c0-3.88,0-7.545,2.604-7.545
							c1.41,0,2.539,1.291,4.79,3.864c5.827,6.66,17.952,20.521,43.315,20.521c25.361,0,37.487-13.859,43.314-20.521
							c2.251-2.573,3.381-3.864,4.791-3.864c2.604,0,2.604,3.665,2.604,7.545C118.208,99.841,95.46,117.31,67.5,117.31z
							 M19.937,74.46c-0.081,0.726-0.146,1.926-0.146,3.908c0,19.818,21.402,35.941,47.709,35.941s47.709-16.123,47.709-35.941
							c0-1.982-0.065-3.183-0.146-3.908c-0.568,0.577-1.308,1.422-1.991,2.203c-6.119,6.993-18.85,21.545-45.572,21.545
							c-26.725,0-39.455-14.552-45.573-21.546C21.244,75.882,20.504,75.037,19.937,74.46z"/>
					</g>
					<g>
						<path class="st205" d="M67.5,117.31c-27.961,0-50.709-17.469-50.709-38.941c0-21.27,22.62-46.959,50.709-46.959
							c13.041,0,25.772,5.472,35.849,15.406c9.305,9.174,14.86,20.97,14.86,31.553C118.208,99.841,95.46,117.31,67.5,117.31z
							 M67.5,34.409c-26.428,0-47.709,24.048-47.709,43.959c0,19.818,21.402,35.941,47.709,35.941s47.709-16.123,47.709-35.941
							C115.208,58.457,93.927,34.409,67.5,34.409z"/>
					</g>
				</g>
				<g>
					<g>
						<g>
							<polygon class="st111" points="21.085,14.813 18.562,35.604 7.878,29.69 12.812,47.282 4.998,48.47 36.736,82.124
								46.63,82.124 							"/>
						</g>
						<g>
							<polygon class="st174" points="41.376,82.124 21.085,28.657 18.562,49.448 12.473,46.077 12.812,47.282 9.089,47.849
								11.066,54.903 36.736,82.124 							"/>
						</g>
						<g>
							<path class="st205" d="M46.63,83.624h-9.895c-0.413,0-0.808-0.17-1.091-0.471L3.906,49.499
								c-0.383-0.406-0.509-0.991-0.327-1.519c0.182-0.527,0.641-0.91,1.192-0.994l6.138-0.933L6.434,30.096
								c-0.163-0.583,0.039-1.206,0.514-1.582c0.475-0.375,1.128-0.429,1.657-0.136l8.736,4.836l2.255-18.581
								c0.083-0.686,0.623-1.226,1.308-1.309c0.683-0.076,1.338,0.312,1.583,0.957l25.545,67.311
								c0.175,0.461,0.112,0.979-0.168,1.384C47.585,83.382,47.124,83.624,46.63,83.624z M37.383,80.624h7.073L21.841,21.033
								l-1.79,14.752c-0.06,0.495-0.363,0.929-0.807,1.155c-0.444,0.227-0.972,0.219-1.409-0.023l-7.543-4.176l3.964,14.136
								c0.116,0.414,0.049,0.857-0.184,1.219c-0.233,0.361-0.61,0.604-1.035,0.67l-4.985,0.757L37.383,80.624z"/>
						</g>
					</g>
					<g>
						<g>
							<polygon class="st111" points="113.914,14.813 116.439,35.604 127.121,29.69 122.189,47.282 130.002,48.47 98.264,82.124
								88.371,82.124 							"/>
						</g>
						<g>
							<polygon class="st174" points="93.625,82.124 113.914,28.657 116.439,49.448 122.527,46.077 122.189,47.282 125.912,47.849
								123.933,54.903 98.264,82.124 							"/>
						</g>
						<g>
							<path class="st205" d="M98.264,83.624h-9.894c-0.493,0-0.955-0.242-1.234-0.648c-0.28-0.405-0.343-0.923-0.168-1.384
								l25.543-67.311c0.245-0.646,0.901-1.034,1.583-0.957c0.685,0.083,1.225,0.623,1.308,1.309l2.257,18.581l8.734-4.836
								c0.528-0.294,1.183-0.239,1.657,0.136c0.475,0.376,0.677,0.999,0.514,1.582l-4.474,15.958l6.137,0.933
								c0.551,0.084,1.011,0.467,1.192,0.994c0.182,0.528,0.056,1.112-0.327,1.519L99.355,83.153
								C99.072,83.454,98.677,83.624,98.264,83.624z M90.544,80.624h7.072l29.331-31.102l-4.984-0.757
								c-0.425-0.065-0.801-0.309-1.035-0.67c-0.233-0.361-0.3-0.805-0.184-1.219l3.963-14.136l-7.542,4.176
								c-0.436,0.242-0.965,0.25-1.409,0.023c-0.444-0.227-0.747-0.66-0.807-1.155l-1.792-14.753L90.544,80.624z"/>
						</g>
					</g>
				</g>
				<g>
					<g>
						<g>
							<g>
								<g>
									<path class="st101" d="M51.337,87.026c0,4.449-3.605,8.051-8.052,8.051s-8.051-3.602-8.051-8.051
										c0-4.447,3.604-8.053,8.051-8.053S51.337,82.579,51.337,87.026z"/>
								</g>
								<g>
									<path class="st205" d="M51.337,87.026c0,4.449-3.605,1.662-8.052,1.662s-8.051,2.787-8.051-1.662
										c0-4.447,3.604-8.053,8.051-8.053S51.337,82.579,51.337,87.026z"/>
								</g>
								<g>
									<path class="st205" d="M43.286,96.577c-5.266,0-9.551-4.284-9.551-9.551c0-5.268,4.285-9.553,9.551-9.553
										c5.267,0,9.552,4.285,9.552,9.553C52.837,92.293,48.553,96.577,43.286,96.577z M43.286,80.474
										c-3.612,0-6.551,2.939-6.551,6.553c0,3.612,2.938,6.551,6.551,6.551c3.613,0,6.552-2.938,6.552-6.551
										C49.837,83.413,46.898,80.474,43.286,80.474z"/>
								</g>
							</g>
							<g>
								<g>
									<circle class="st188" cx="39.282" cy="84.409" r="3.28"/>
								</g>
								<g>
									<path class="st205" d="M39.281,89.188c-2.635,0-4.779-2.144-4.779-4.779s2.144-4.779,4.779-4.779
										c2.636,0,4.781,2.144,4.781,4.779S41.917,89.188,39.281,89.188z M39.281,82.63c-0.981,0-1.779,0.798-1.779,1.779
										s0.798,1.779,1.779,1.779c0.982,0,1.781-0.798,1.781-1.779S40.263,82.63,39.281,82.63z"/>
								</g>
							</g>
						</g>
						<g>
							<g>
								<g>
									<path class="st101" d="M99.765,87.026c0,4.449-3.605,8.051-8.051,8.051c-4.447,0-8.053-3.602-8.053-8.051
										c0-4.447,3.605-8.053,8.053-8.053C96.16,78.974,99.765,82.579,99.765,87.026z"/>
								</g>
								<g>
									<path class="st205" d="M99.765,87.026c0,4.449-3.605,1.662-8.051,1.662c-4.447,0-8.053,2.787-8.053-1.662
										c0-4.447,3.605-8.053,8.053-8.053C96.16,78.974,99.765,82.579,99.765,87.026z"/>
								</g>
								<g>
									<path class="st205" d="M91.714,96.577c-5.268,0-9.553-4.284-9.553-9.551c0-5.268,4.285-9.553,9.553-9.553
										c5.266,0,9.551,4.285,9.551,9.553C101.265,92.293,96.98,96.577,91.714,96.577z M91.714,80.474
										c-3.613,0-6.553,2.939-6.553,6.553c0,3.612,2.939,6.551,6.553,6.551c3.612,0,6.551-2.938,6.551-6.551
										C98.265,83.413,95.327,80.474,91.714,80.474z"/>
								</g>
							</g>
							<g>
								<g>
									<circle class="st188" cx="87.709" cy="84.409" r="3.28"/>
								</g>
								<g>
									<path class="st205" d="M87.709,89.188c-2.636,0-4.78-2.144-4.78-4.779s2.145-4.779,4.78-4.779s4.78,2.144,4.78,4.779
										S90.345,89.188,87.709,89.188z M87.709,82.63c-0.981,0-1.78,0.798-1.78,1.779s0.799,1.779,1.78,1.779
										s1.78-0.798,1.78-1.779S88.691,82.63,87.709,82.63z"/>
								</g>
							</g>
						</g>
					</g>
				</g>
				<g>
					<path class="st251" d="M77.936,93.19c0,1.395-4.691,1.645-10.478,1.645c-5.787,0-10.479-0.25-10.479-1.645
						c0-1.393,4.691-5.035,10.479-5.035C73.245,88.155,77.936,91.798,77.936,93.19z"/>
				</g>
			</g>
		</g>
	</g>
	<g>
		<g>
			<polygon class="st32" points="85.958,101.728 67.5,120.187 49.042,101.728 67.501,89.583 			"/>
		</g>
		<g>
			<polyline class="st65" points="67.501,89.583 85.958,101.728 67.5,120.187 			"/>
		</g>
		<g>
			<polygon class="st119" points="85.958,101.728 67.5,120.187 49.042,101.728 67.501,106.306 			"/>
		</g>
		<g>
			<path class="st205" d="M67.5,121.687L67.5,121.687c-0.398,0-0.779-0.158-1.061-0.439l-18.457-18.459
				c-0.319-0.319-0.478-0.765-0.432-1.213s0.291-0.853,0.668-1.101L66.677,88.33c0.5-0.33,1.148-0.33,1.649,0l18.457,12.145
				c0.376,0.248,0.622,0.652,0.667,1.101s-0.113,0.895-0.432,1.213L68.56,121.247C68.279,121.528,67.897,121.687,67.5,121.687z
				 M51.405,101.969L67.5,118.065l16.097-16.097l-16.095-10.59L51.405,101.969z"/>
		</g>
	</g>
	<g>
		<polygon class="st108" points="96.372,43.589 86.937,22.595 77.919,26.647 67.5,16.228 57.08,26.647 48.063,22.595 38.628,43.589
			59.621,53.024 60.089,51.979 67.5,59.392 74.91,51.981 75.378,53.024 		"/>
	</g>
	<g>
		<polygon class="st24" points="77.919,44.229 67.5,33.81 57.08,44.229 48.063,40.177 45.203,46.542 59.621,53.024 60.089,51.979
			67.5,59.392 74.91,51.981 75.378,53.024 89.798,46.542 86.937,40.177 		"/>
	</g>
	<g>
		<path class="st205" d="M96.373,45.089c-0.573,0-1.119-0.329-1.369-0.885l-8.82-19.626l-7.649,3.438
			c-0.568,0.256-1.236,0.132-1.675-0.308L67.5,18.349l-9.359,9.359c-0.439,0.439-1.108,0.563-1.675,0.308l-7.648-3.438l-8.82,19.626
			c-0.339,0.755-1.226,1.093-1.983,0.753c-0.756-0.34-1.093-1.228-0.753-1.983l9.435-20.994c0.163-0.362,0.463-0.646,0.835-0.787
			c0.373-0.142,0.786-0.129,1.147,0.034l8.073,3.629l9.688-9.688c0.586-0.586,1.535-0.586,2.121,0l9.688,9.688l8.074-3.629
			c0.363-0.163,0.775-0.176,1.147-0.034c0.372,0.142,0.672,0.425,0.835,0.787l9.435,20.994c0.34,0.756,0.002,1.644-0.753,1.983
			C96.787,45.047,96.578,45.089,96.373,45.089z"/>
	</g>
</g>
</svg>
