<?xml version="1.0" encoding="utf-8"?>
<!-- Generator: Adobe Illustrator 16.0.0, SVG Export Plug-In . SVG Version: 6.00 Build 0)  -->
<!DOCTYPE svg PUBLIC "-//W3C//DTD SVG 1.1//EN" "http://www.w3.org/Graphics/SVG/1.1/DTD/svg11.dtd">
<svg version="1.1" id="Layer_1" xmlns="http://www.w3.org/2000/svg" x="0px" y="0px"
	 width="135px" height="135px" viewBox="0 0 135 135" style="enable-background:new 0 0 135 135;" xml:space="preserve">
<style type="text/css">
<![CDATA[
	.st0{fill:#465652;}
	.st1{fill:#AAB9BA;}
	.st2{fill:#47C67B;}
	.st3{fill:#AAC8D1;}
	.st4{fill:none;stroke:#E83834;stroke-width:6;stroke-linecap:round;stroke-linejoin:round;stroke-miterlimit:10;}
	.st5{fill:#7BC67B;}
	.st6{fill:#7BC7FF;}
	.st7{fill:#7C34C1;}
	.st8{fill:#7C8D96;}
	.st9{fill:#AD2707;}
	.st10{fill:#ADB8BC;}
	.st11{fill:#107510;}
	.st12{fill:#7FE5D8;}
	.st13{fill:#AF4AD1;}
	.st14{fill:#E02B7E;}
	.st15{fill:#E04038;}
	.st16{fill:#AFD7DD;}
	.st17{fill:#E0A010;}
	.st18{fill:#E0D5A4;}
	.st19{fill:#12B2B2;}
	.st20{fill:#12D66B;}
	.st21{fill:#E1A9FF;}
	.st22{fill:#1362A8;}
	.st23{fill:#E2378D;}
	.st24{fill:#E29C37;}
	.st25{fill:#E2B90E;}
	.st26{fill:#E2BF91;}
	.st27{fill:#E2CBAA;}
	.st28{fill:#14A594;}
	.st29{fill:#E4E9ED;}
	.st30{fill:#4A5D60;}
	.st31{fill:#E5B076;}
	.st32{fill:#E5B1C4;}
	.st33{fill:#E5E4C3;}
	.st34{fill:#4B6466;}
	.st35{fill:#E6FF2E;}
	.st36{fill:#18AA67;}
	.st37{fill:#E86207;}
	.st38{fill:#E8A113;}
	.st39{fill:#E8B5A6;}
	.st40{fill:#E8E8ED;}
	.st41{fill:#4E5154;}
	.st42{fill:#E9F1F4;}
	.st43{fill:#4F4B48;}
	.st44{fill:#4F74E8;}
	.st45{fill:#808E93;}
	.st46{fill:#80949B;}
	.st47{fill:#80EDAC;}
	.st48{fill:#B122E0;}
	.st49{fill:#B2C4CC;}
	.st50{fill:#83D839;}
	.st51{fill:#B3C6C6;}
	.st52{fill:none;stroke:#33363A;stroke-width:3;stroke-linecap:round;stroke-linejoin:round;stroke-miterlimit:10;}
	.st53{fill:#1A8E1C;}
	.st54{fill:#1A93D6;}
	.st55{fill:#B50B0B;}
	.st56{fill:#1AD88F;}
	.st57{fill:#B5DAF4;}
	.st58{fill:#EA7B1F;}
	.st59{fill:#EA81BD;}
	.st60{fill:#87B8D6;}
	.st61{fill:#87C3F4;}
	.st62{fill:#EAC79D;}
	.st63{fill:#EADF11;}
	.st64{fill:#EAE4C5;}
	.st65{fill:#B78094;}
	.st66{fill:#8844D8;}
	.st67{fill:#EBF4F7;}
	.st68{fill:#893015;}
	.st69{fill:#89410B;}
	.st70{fill:#899BA3;}
	.st71{fill:#EDE3B9;}
	.st72{enable-background:new    ;}
	.st73{fill:#50FF9F;}
	.st74{fill:#EEDCF4;}
	.st75{fill:#EFA37D;}
	.st76{fill:#EFA3CC;}
	.st77{fill:#EFC99A;}
	.st78{fill:#54AF79;}
	.st79{fill:#BA503A;}
	.st80{fill:#BA8663;}
	.st81{fill:#8B4FE0;}
	.st82{fill:#58ED9B;}
	.st83{fill:#BC7DFF;}
	.st84{fill:#8D9AA3;}
	.st85{fill:#BCCAD3;}
	.st86{fill:#8DE4FF;}
	.st87{fill:#20B518;}
	.st88{fill:#BF44F2;}
	.st89{fill:#21CEA1;}
	.st90{fill:#BFDAE0;}
	.st91{fill:#F0FBFC;}
	.st92{fill:#F2D9A7;}
	.st93{fill:#F2EAC9;}
	.st94{fill:#24D1AF;}
	.st95{fill:#25931C;}
	.st96{fill:#F4C4B3;}
	.st97{fill:#F4D3A2;}
	.st98{fill:#F4D647;}
	.st99{fill:#F4D7B8;}
	.st100{fill:#F4EC8E;}
	.st101{fill:#5B524D;}
	.st102{fill:#F77819;}
	.st103{fill:#F79AE1;}
	.st104{fill:#5E707A;}
	.st105{fill:#F93585;}
	.st106{fill:#F95D5D;}
	.st107{fill:#F9C19B;}
	.st108{fill:#F9CB58;}
	.st109{fill:#F9D2B2;}
	.st110{fill:#F9F07D;}
	.st111{fill:#F9F1D2;}
	.st112{fill:#F9F4B7;}
	.st113{fill:#F9F9E4;}
	.st114{fill:#5F1DAA;}
	.st115{fill:#5F9AD6;}
	.st116{fill:#C0C0C4;}
	.st117{fill:#91EA57;}
	.st118{fill:#C12727;}
	.st119{fill:#C191A0;}
	.st120{fill:#923BB7;}
	.st121{fill:#93A0A3;}
	.st122{fill:#93F9EA;}
	.st123{fill:#93FF5A;}
	.st124{fill:#C4833D;}
	.st125{fill:#95A2A5;}
	.st126{fill:#965514;}
	.st127{fill:#96562C;}
	.st128{fill:#2AF42F;}
	.st129{fill:#C5D7DD;}
	.st130{fill:#C68510;}
	.st131{fill:#C6A86D;}
	.st132{fill:#C6BB8D;}
	.st133{fill:#2C9DCE;}
	.st134{fill:#FBFCF2;}
	.st135{fill:#FC70B0;}
	.st136{fill:#FCE6C8;}
	.st137{fill:#FCF7E3;}
	.st138{fill:#C90D6B;}
	.st139{fill:#FDFEFF;}
	.st140{fill:#FDFFDC;}
	.st141{fill:#FF1A1A;}
	.st142{fill:#FF5252;}
	.st143{fill:#FF5B00;}
	.st144{fill:#FF6155;}
	.st145{fill:#FF630D;}
	.st146{fill:#FF6666;}
	.st147{fill:#FF7676;}
	.st148{fill:#FF7900;}
	.st149{fill:#FF860D;}
	.st150{fill:#FF8B00;}
	.st151{fill:#FF8F8F;}
	.st152{fill:#FF900B;}
	.st153{fill:#FF908A;}
	.st154{fill:#FF960B;}
	.st155{fill:#FF9C0D;}
	.st156{fill:#FFA9D4;}
	.st157{fill:#FFAA00;}
	.st158{fill:#FFAD40;}
	.st159{fill:#FFAF10;}
	.st160{fill:#FFB000;}
	.st161{fill:#FFBE08;}
	.st162{fill:#FFBF31;}
	.st163{fill:#FFC200;}
	.st164{fill:#FFCAE8;}
	.st165{fill:#FFCCF5;}
	.st166{fill:#FFD00B;}
	.st167{fill:#FFD039;}
	.st168{fill:#FFD400;}
	.st169{fill:#FFD833;}
	.st170{fill:#FFDB80;}
	.st171{fill:#FFDDD2;}
	.st172{fill:#FFE6D4;}
	.st173{fill:#FFE6EB;}
	.st174{fill:#FFE98D;}
	.st175{fill:#FFECD2;}
	.st176{fill:#FFF1D9;}
	.st177{fill:#FFF24D;}
	.st178{fill:#FFF3C2;}
	.st179{fill:#FFF4C7;}
	.st180{fill:#FFF800;}
	.st181{fill:#FFF80D;}
	.st182{fill:#FFF9DE;}
	.st183{fill:#FFFBD7;}
	.st184{fill:#FFFBEB;}
	.st185{fill:#FFFCC0;}
	.st186{fill:#FFFCDC;}
	.st187{fill:#FFFFFA;}
	.st188{fill:#FFFFFF;}
	.st189{fill:#63797F;}
	.st190{fill:#65E529;}
	.st191{fill:#66310E;}
	.st192{fill:#663C17;}
	.st193{fill:#9A5AE5;}
	.st194{fill:#CA30EF;}
	.st195{fill:#6892FC;}
	.st196{fill:#9CFFC4;}
	.st197{fill:#CC4306;}
	.st198{fill:#CC549E;}
	.st199{fill:#9E3256;}
	.st200{fill:#CDFFBB;}
	.st201{fill:#CE86AF;}
	.st202{fill:#CED9DD;}

		.st203{fill:none;stroke:#33363A;stroke-width:3;stroke-linecap:round;stroke-linejoin:round;stroke-miterlimit:10;stroke-dasharray:6;}
	.st204{fill:#CFE1E2;}
	.st205{fill:#33363A;}
	.st206{fill:#34C166;}
	.st207{fill:#364B5B;}
	.st208{fill:#3662CE;}
	.st209{fill:#36C6FF;}
	.st210{fill:#6ADB9A;}
	.st211{fill:#6D5C4D;}
	.st212{fill:#6EBDF9;}
	.st213{fill:#0031FF;}
	.st214{fill:#0062FF;}
	.st215{fill:#0068FF;}
	.st216{fill:#0086FF;}
	.st217{fill:#009BE8;}
	.st218{fill:#00AAFF;}
	.st219{fill:#D271FF;}
	.st220{fill:#D363A9;}
	.st221{fill:#D3964C;}
	.st222{fill:#D3DFE2;}
	.st223{fill:#D3E0E2;}
	.st224{fill:#D3EFF4;}
	.st225{fill:#063B66;}
	.st226{fill:#D60909;}
	.st227{fill:#D61D1D;}
	.st228{fill:#D7F0FF;}
	.st229{fill:#09B285;}
	.st230{fill:#D8D593;}
	.st231{fill:#D8E2EA;}
	.st232{fill:#D8E5EA;}
	.st233{fill:#3E5054;}
	.st234{fill:#D988FF;}
	.st235{fill:#D9E7E8;}
	.st236{fill:#702252;}
	.st237{fill:#70D3E0;}
	.st238{fill:#A02FF2;}
	.st239{fill:#A2F255;}
	.st240{fill:#A35616;}
	.st241{fill:#A3CCCC;}
	.st242{fill:#0A6ADD;}
	.st243{fill:#A5145D;}
	.st244{fill:#A57555;}
	.st245{fill:#77D6FC;}
	.st246{fill:#7815CE;}
	.st247{fill:#A7BBC1;}
	.st248{fill:#DBD279;}
	.st249{fill:#0D5C9E;}
	.st250{fill:#A83C11;}
	.st251{fill:#A8633D;}
	.st252{fill:#A8A3E5;}
	.st253{fill:#DCE6EA;}
	.st254{fill:#DCE7EA;}
	.st255{fill:#A962E8;}
	.st256{fill:#DD2466;}
	.st257{fill:#DDC38A;}
	.st258{fill:#DDD2B1;}
	.st259{fill:#DFE7E8;}
	.st260{fill:#42B1E8;}
	.st261{fill:#436377;}
	.st262{fill:#43B530;}
]]>
</style>
<g>
	<g>
		<g>
			<g>
				<g>
					<path class="st175" d="M117.667,12.793c6.312,8.672,7.636,20.494,2.378,30.676c-5.255,10.186-15.657,15.955-26.385,15.834
						c-6.312-8.674-7.635-20.496-2.379-30.678C96.537,18.441,106.938,12.672,117.667,12.793z"/>
				</g>
				<g>
					<path class="st97" d="M93.66,59.303c-6.312-8.674-7.635-20.496-2.379-30.678c5.256-10.184,15.657-15.953,26.386-15.832"/>
				</g>
				<g>
					<path class="st205" d="M93.991,60.805l-0.348-0.002c-0.474-0.006-0.917-0.234-1.196-0.617
						c-6.909-9.493-7.867-21.851-2.499-32.249c5.299-10.267,15.793-16.646,27.388-16.646l0.348,0.002
						c0.474,0.006,0.917,0.234,1.196,0.617c6.91,9.494,7.867,21.85,2.498,32.247C116.08,54.426,105.586,60.805,93.991,60.805z
						 M116.892,14.295c-10.29,0.16-19.563,5.884-24.278,15.018c-4.728,9.159-4.016,20.005,1.821,28.488
						c10.291-0.16,19.563-5.884,24.277-15.02C123.441,33.623,122.729,22.778,116.892,14.295z"/>
				</g>
			</g>
			<g>
				<g>
					<path class="st76" d="M113.052,23.646c3.885,5.338,4.699,12.615,1.464,18.881c-3.234,6.27-9.637,9.82-16.24,9.746
						c-3.885-5.338-4.699-12.615-1.464-18.881C100.047,27.123,106.448,23.572,113.052,23.646z"/>
				</g>
				<g>
					<path class="st205" d="M98.479,53.774l-0.22-0.001c-0.474-0.006-0.917-0.234-1.196-0.617
						c-4.382-6.021-4.989-13.857-1.584-20.452c3.361-6.513,10.017-10.559,17.37-10.559l0.22,0.001
						c0.474,0.006,0.917,0.234,1.196,0.617c4.382,6.021,4.989,13.857,1.584,20.452C112.489,49.729,105.833,53.774,98.479,53.774z
						 M112.273,25.155c-5.996,0.203-11.373,3.584-14.129,8.925c-2.765,5.354-2.402,11.678,0.909,16.685
						c5.997-0.203,11.374-3.584,14.129-8.925C115.947,36.485,115.585,30.162,112.273,25.155z"/>
				</g>
			</g>
		</g>
		<g>
			<g>
				<g>
					<path class="st175" d="M17.333,12.793c-6.312,8.672-7.636,20.494-2.378,30.676C20.21,53.654,30.612,59.424,41.34,59.303
						c6.312-8.674,7.635-20.496,2.379-30.678C38.463,18.441,28.062,12.672,17.333,12.793z"/>
				</g>
				<g>
					<path class="st97" d="M41.34,59.303c6.312-8.674,7.635-20.496,2.379-30.678c-5.256-10.184-15.657-15.953-26.386-15.832"/>
				</g>
				<g>
					<path class="st205" d="M41.009,60.805c-11.595,0-22.089-6.38-27.387-16.648C8.253,33.76,9.21,21.404,16.12,11.91
						c0.279-0.383,0.722-0.611,1.196-0.617l0.348-0.002c11.594,0,22.088,6.379,27.388,16.646c5.368,10.397,4.41,22.755-2.499,32.248
						c-0.279,0.383-0.722,0.611-1.196,0.617L41.009,60.805z M18.108,14.295c-5.837,8.483-6.549,19.328-1.82,28.485
						c4.713,9.136,13.986,14.86,24.277,15.021c5.837-8.483,6.549-19.329,1.821-28.487C37.671,20.179,28.398,14.455,18.108,14.295z"
						/>
				</g>
			</g>
			<g>
				<g>
					<path class="st76" d="M21.948,23.646c-3.885,5.338-4.699,12.615-1.464,18.881c3.234,6.27,9.637,9.82,16.24,9.746
						c3.885-5.338,4.699-12.615,1.464-18.881C34.953,27.123,28.552,23.572,21.948,23.646z"/>
				</g>
				<g>
					<path class="st205" d="M36.521,53.774c-7.354,0-14.01-4.046-17.37-10.56c-3.405-6.594-2.798-14.43,1.584-20.451
						c0.279-0.383,0.722-0.611,1.196-0.617l0.22-0.001c7.353,0,14.009,4.046,17.37,10.56c3.405,6.594,2.798,14.43-1.584,20.451
						c-0.279,0.383-0.722,0.611-1.196,0.617L36.521,53.774z M22.727,25.155c-3.312,5.007-3.674,11.33-0.909,16.684
						c2.755,5.342,8.132,8.723,14.129,8.926c3.312-5.007,3.674-11.33,0.909-16.684C34.099,28.739,28.723,25.358,22.727,25.155z"/>
				</g>
			</g>
		</g>
	</g>
	<g>
		<g>
			<g>
				<path class="st97" d="M116.709,84.768c0,20.676-22.031,37.441-49.209,37.441s-49.209-16.766-49.209-37.441
					c0-20.68,22.031-45.459,49.209-45.459S116.709,64.088,116.709,84.768z"/>
			</g>
			<g>
				<path class="st97" d="M116.709,84.768c0,20.676-22.031,37.441-49.209,37.441s-49.209-16.766-49.209-37.441
					c0-20.68,22.031-34.928,49.209-34.928S116.709,64.088,116.709,84.768z"/>
			</g>
			<g>
				<path class="st26" d="M116.709,84.768c0,20.676-22.031,37.441-49.209,37.441s-49.209-16.766-49.209-37.441
					c0-20.682,6.262,18.34,49.209,18.34S116.709,64.086,116.709,84.768z"/>
			</g>
			<g>
				<path class="st205" d="M67.5,123.709c-27.961,0-50.709-17.469-50.709-38.941c0-21.27,22.62-46.959,50.709-46.959
					c13.041,0,25.772,5.472,35.849,15.406c9.305,9.174,14.86,20.97,14.86,31.553C118.209,106.24,95.461,123.709,67.5,123.709z
					 M67.5,40.809c-26.428,0-47.709,24.048-47.709,43.959c0,19.818,21.402,35.941,47.709,35.941s47.709-16.123,47.709-35.941
					C115.209,64.856,93.928,40.809,67.5,40.809z"/>
			</g>
		</g>
		<g>
			<path class="st97" d="M77.936,97.049c0,1.393-4.691,1.643-10.478,1.643c-5.787,0-10.479-0.25-10.479-1.643
				c0-1.395,4.691-5.037,10.479-5.037C73.244,92.012,77.936,95.654,77.936,97.049z"/>
		</g>
		<g>
			<g>
				<path class="st205" d="M58.474,83.477c-0.367,0-0.735-0.134-1.025-0.405l-12.75-11.938c-0.604-0.566-0.636-1.516-0.07-2.12
					s1.515-0.638,2.121-0.069L59.5,80.882c0.604,0.566,0.636,1.516,0.07,2.12C59.274,83.317,58.875,83.477,58.474,83.477z"/>
			</g>
			<g>
				<path class="st205" d="M76.526,83.477c-0.401,0-0.8-0.159-1.096-0.475c-0.566-0.604-0.535-1.554,0.07-2.12l12.75-11.938
					c0.606-0.567,1.555-0.535,2.121,0.069c0.566,0.604,0.535,1.554-0.07,2.12l-12.75,11.938
					C77.261,83.343,76.893,83.477,76.526,83.477z"/>
			</g>
		</g>
		<g>
			<g>
				<g>
					<g>
						<polygon class="st26" points="96.837,113.805 119.309,112.275 117.918,103.438 130.633,97.844 123.584,85.873 129.879,79.516
							112.537,65.143 97.883,79.947 98.742,80.66 89.701,84.637 94.711,93.146 93.596,93.225 						"/>
					</g>
					<g>
						<path class="st205" d="M96.835,115.305c-0.782,0-1.441-0.606-1.495-1.398c-0.056-0.826,0.568-1.542,1.395-1.598l20.837-1.419
							l-1.136-7.219c-0.105-0.673,0.255-1.332,0.878-1.606l11.17-4.914l-6.192-10.517c-0.346-0.586-0.252-1.332,0.227-1.816
							l5.142-5.192l-16.08-13.327c-0.638-0.529-0.727-1.475-0.198-2.112c0.528-0.638,1.474-0.727,2.112-0.198l17.342,14.373
							c0.324,0.269,0.521,0.661,0.541,1.082c0.021,0.42-0.136,0.83-0.432,1.129l-5.482,5.536l6.462,10.976
							c0.217,0.369,0.267,0.813,0.135,1.222c-0.132,0.407-0.432,0.739-0.824,0.912l-11.658,5.129l1.211,7.696
							c0.065,0.416-0.047,0.84-0.31,1.169c-0.262,0.329-0.651,0.532-1.07,0.561l-22.472,1.529
							C96.904,115.304,96.87,115.305,96.835,115.305z"/>
					</g>
				</g>
			</g>
			<g>
				<g>
					<g>
						<polygon class="st26" points="38.163,113.805 15.691,112.275 17.082,103.438 4.367,97.844 11.416,85.873 5.121,79.516
							22.463,65.143 37.117,79.947 36.258,80.66 45.299,84.637 40.289,93.146 41.404,93.225 						"/>
					</g>
					<g>
						<path class="st205" d="M38.165,115.305c-0.034,0-0.069-0.001-0.104-0.004l-22.472-1.529c-0.419-0.028-0.808-0.231-1.07-0.561
							c-0.263-0.329-0.375-0.753-0.31-1.169l1.211-7.696L3.763,99.217c-0.392-0.173-0.692-0.505-0.824-0.912
							c-0.131-0.408-0.082-0.853,0.135-1.222l6.462-10.976l-5.482-5.536c-0.296-0.299-0.453-0.709-0.432-1.129
							c0.021-0.421,0.217-0.813,0.541-1.082l17.342-14.373c0.639-0.527,1.584-0.439,2.112,0.198c0.529,0.638,0.44,1.583-0.198,2.112
							L7.34,79.625l5.142,5.192c0.479,0.484,0.572,1.23,0.227,1.816L6.516,97.15l11.17,4.914c0.623,0.274,0.983,0.934,0.878,1.606
							l-1.136,7.219l20.837,1.419c0.826,0.056,1.451,0.771,1.395,1.598C39.606,114.698,38.947,115.305,38.165,115.305z"/>
					</g>
				</g>
			</g>
		</g>
		<g>
			<g>
				<g>
					<g>
						<g>
							<path class="st197" d="M51.338,88.811c0,4.449-3.605,8.051-8.053,8.051c-4.445,0-8.051-3.602-8.051-8.051
								c0-4.447,3.605-8.053,8.051-8.053C47.732,80.758,51.338,84.363,51.338,88.811z"/>
						</g>
						<g>
							<path class="st205" d="M51.338,88.811c0,4.449-3.605,1.662-8.053,1.662c-4.445,0-8.051,2.787-8.051-1.662
								c0-4.447,3.605-8.053,8.051-8.053C47.732,80.758,51.338,84.363,51.338,88.811z"/>
						</g>
						<g>
							<path class="st205" d="M43.285,98.361c-5.266,0-9.551-4.284-9.551-9.551c0-5.268,4.285-9.553,9.551-9.553
								c5.268,0,9.553,4.285,9.553,9.553C52.838,94.077,48.553,98.361,43.285,98.361z M43.285,82.258
								c-3.612,0-6.551,2.939-6.551,6.553c0,3.612,2.938,6.551,6.551,6.551c3.613,0,6.553-2.938,6.553-6.551
								C49.838,85.197,46.898,82.258,43.285,82.258z"/>
						</g>
					</g>
					<g>
						<g>
							<circle class="st188" cx="39.282" cy="86.193" r="3.28"/>
						</g>
						<g>
							<path class="st205" d="M39.281,90.973c-2.635,0-4.779-2.144-4.779-4.779s2.144-4.779,4.779-4.779
								c2.636,0,4.781,2.144,4.781,4.779S41.917,90.973,39.281,90.973z M39.281,84.414c-0.981,0-1.779,0.798-1.779,1.779
								s0.798,1.779,1.779,1.779c0.982,0,1.781-0.798,1.781-1.779S40.263,84.414,39.281,84.414z"/>
						</g>
					</g>
				</g>
				<g>
					<g>
						<g>
							<path class="st197" d="M99.766,88.811c0,4.449-3.605,8.051-8.051,8.051c-4.447,0-8.053-3.602-8.053-8.051
								c0-4.447,3.605-8.053,8.053-8.053C96.16,80.758,99.766,84.363,99.766,88.811z"/>
						</g>
						<g>
							<path class="st205" d="M99.766,88.811c0,4.449-3.605,1.662-8.051,1.662c-4.447,0-8.053,2.787-8.053-1.662
								c0-4.447,3.605-8.053,8.053-8.053C96.16,80.758,99.766,84.363,99.766,88.811z"/>
						</g>
						<g>
							<path class="st205" d="M91.715,98.361c-5.268,0-9.553-4.284-9.553-9.551c0-5.268,4.285-9.553,9.553-9.553
								c5.266,0,9.551,4.285,9.551,9.553C101.266,94.077,96.981,98.361,91.715,98.361z M91.715,82.258
								c-3.613,0-6.553,2.939-6.553,6.553c0,3.612,2.939,6.551,6.553,6.551c3.612,0,6.551-2.938,6.551-6.551
								C98.266,85.197,95.327,82.258,91.715,82.258z"/>
						</g>
					</g>
					<g>
						<g>
							<circle class="st188" cx="87.71" cy="86.193" r="3.28"/>
						</g>
						<g>
							<path class="st205" d="M87.709,90.973c-2.635,0-4.779-2.144-4.779-4.779s2.144-4.779,4.779-4.779
								c2.636,0,4.781,2.144,4.781,4.779S90.345,90.973,87.709,90.973z M87.709,84.414c-0.981,0-1.779,0.798-1.779,1.779
								s0.798,1.779,1.779,1.779c0.982,0,1.781-0.798,1.781-1.779S88.691,84.414,87.709,84.414z"/>
						</g>
					</g>
				</g>
			</g>
		</g>
	</g>
	<g>
		<g>
			<ellipse class="st164" cx="67.5" cy="103.85" rx="12.83" ry="7.93"/>
		</g>
		<g>
			<path class="st76" d="M80.33,103.85c0,4.379-5.744,7.93-12.83,7.93s-12.83-3.551-12.83-7.93s5.744-1.049,12.83-1.049
				S80.33,99.471,80.33,103.85z"/>
		</g>
		<g>
			<path class="st205" d="M67.5,113.279c-8.036,0-14.33-4.142-14.33-9.43c0-5.286,6.294-9.428,14.33-9.428s14.33,4.142,14.33,9.428
				C81.83,109.138,75.536,113.279,67.5,113.279z M67.5,97.422c-6.142,0-11.33,2.943-11.33,6.428c0,3.485,5.188,6.43,11.33,6.43
				s11.33-2.944,11.33-6.43C78.83,100.365,73.642,97.422,67.5,97.422z"/>
		</g>
	</g>
	<g>
		<g>
			<path class="st205" d="M63.916,107.545c-0.829,0-1.5-0.672-1.5-1.5v-3.955c0-0.828,0.671-1.5,1.5-1.5s1.5,0.672,1.5,1.5v3.955
				C65.416,106.873,64.745,107.545,63.916,107.545z"/>
		</g>
		<g>
			<path class="st205" d="M71.084,107.545c-0.829,0-1.5-0.672-1.5-1.5v-3.955c0-0.828,0.671-1.5,1.5-1.5s1.5,0.672,1.5,1.5v3.955
				C72.584,106.873,71.913,107.545,71.084,107.545z"/>
		</g>
	</g>
	<g>
		<g>
			<polygon class="st175" points="96.371,51.641 86.938,30.646 77.92,34.699 67.5,24.279 57.08,34.699 48.062,30.646 38.629,51.641
				59.62,61.076 60.089,60.031 67.5,67.443 74.91,60.033 75.379,61.076 			"/>
		</g>
		<g>
			<polygon class="st97" points="77.92,52.281 67.5,41.861 57.08,52.281 48.062,48.229 45.202,54.594 59.62,61.076 60.089,60.031
				67.5,67.443 74.91,60.033 75.379,61.076 89.798,54.594 86.938,48.229 			"/>
		</g>
		<g>
			<path class="st205" d="M96.372,53.141c-0.573,0-1.119-0.329-1.369-0.885L86.184,32.63l-7.649,3.438
				c-0.568,0.257-1.235,0.132-1.675-0.308L67.5,26.4l-9.359,9.359c-0.44,0.439-1.108,0.563-1.675,0.308l-7.649-3.438l-8.819,19.626
				c-0.34,0.755-1.226,1.094-1.983,0.753c-0.756-0.34-1.093-1.228-0.753-1.983l9.434-20.994c0.163-0.362,0.463-0.646,0.835-0.787
				c0.373-0.142,0.785-0.13,1.147,0.034l8.074,3.629l9.688-9.688c0.586-0.586,1.535-0.586,2.121,0l9.688,9.688l8.074-3.629
				c0.363-0.164,0.775-0.176,1.147-0.034s0.672,0.425,0.835,0.787l9.434,20.994c0.339,0.756,0.002,1.644-0.753,1.983
				C96.786,53.099,96.578,53.141,96.372,53.141z"/>
		</g>
	</g>
	<g>
		<g>
			<g>
				<polygon class="st175" points="51.783,38.82 30.124,32.637 28.435,41.424 14.576,42.373 17.146,56.023 9.068,59.871
					20.508,79.273 39.315,70.316 38.748,69.355 48.602,68.68 46.775,58.975 47.852,59.279 				"/>
			</g>
			<g>
				<polygon class="st97" points="42.295,52.139 28.436,53.088 31.008,66.74 22.929,70.586 26.398,76.469 39.315,70.316
					38.748,69.355 48.602,68.68 46.775,58.975 47.852,59.279 50.552,45.229 43.984,43.352 				"/>
			</g>
			<g>
				<path class="st205" d="M20.509,80.773c-0.514,0-1.014-0.264-1.293-0.738L7.776,60.633c-0.214-0.362-0.266-0.798-0.143-1.2
					s0.41-0.734,0.79-0.916l7.035-3.351L13.102,42.65c-0.079-0.421,0.025-0.855,0.288-1.194c0.262-0.34,0.657-0.55,1.084-0.579
					l12.706-0.871l1.471-7.652c0.08-0.413,0.329-0.774,0.688-0.994c0.358-0.223,0.792-0.282,1.197-0.165l21.659,6.184
					c0.797,0.228,1.258,1.058,1.031,1.854c-0.227,0.796-1.058,1.257-1.854,1.03l-20.084-5.733l-1.38,7.178
					c-0.129,0.669-0.691,1.167-1.371,1.213l-12.174,0.834l2.258,11.992c0.126,0.669-0.214,1.339-0.829,1.632l-6.599,3.143
					L21.8,78.512c0.421,0.714,0.184,1.633-0.53,2.054C21.03,80.707,20.768,80.773,20.509,80.773z"/>
			</g>
		</g>
		<g>
			<g>
				<polygon class="st175" points="83.217,38.82 104.876,32.637 106.564,41.424 120.424,42.373 117.853,56.023 125.932,59.871
					114.491,79.273 95.684,70.316 96.252,69.355 86.397,68.68 88.224,58.975 87.148,59.279 				"/>
			</g>
			<g>
				<polygon class="st97" points="92.704,52.139 106.564,53.088 103.992,66.74 112.071,70.586 108.602,76.469 95.684,70.316
					96.252,69.355 86.397,68.68 88.224,58.975 87.148,59.279 84.447,45.229 91.016,43.352 				"/>
			</g>
			<g>
				<path class="st205" d="M114.49,80.773c-0.259,0-0.521-0.066-0.76-0.208c-0.714-0.421-0.951-1.34-0.53-2.054l10.608-17.991
					l-6.6-3.143c-0.615-0.293-0.955-0.963-0.829-1.632l2.259-11.992l-12.175-0.834c-0.679-0.046-1.242-0.544-1.371-1.213
					l-1.379-7.178l-20.083,5.733c-0.792,0.227-1.626-0.234-1.854-1.03c-0.228-0.797,0.234-1.627,1.031-1.854l21.659-6.184
					c0.406-0.115,0.84-0.057,1.197,0.165c0.359,0.22,0.608,0.581,0.688,0.994l1.47,7.652l12.707,0.871
					c0.427,0.029,0.822,0.239,1.084,0.579c0.262,0.339,0.367,0.773,0.288,1.194l-2.357,12.516l7.036,3.351
					c0.38,0.182,0.667,0.514,0.79,0.916s0.071,0.838-0.143,1.2l-11.44,19.402C115.503,80.51,115.003,80.773,114.49,80.773z"/>
			</g>
		</g>
	</g>
</g>
</svg>
