<?xml version="1.0" encoding="utf-8"?>
<!-- Generator: Adobe Illustrator 16.0.0, SVG Export Plug-In . SVG Version: 6.00 Build 0)  -->
<!DOCTYPE svg PUBLIC "-//W3C//DTD SVG 1.1//EN" "http://www.w3.org/Graphics/SVG/1.1/DTD/svg11.dtd">
<svg version="1.1" id="Layer_1" xmlns="http://www.w3.org/2000/svg" x="0px" y="0px"
	 width="135px" height="135px" viewBox="0 0 135 135" style="enable-background:new 0 0 135 135;" xml:space="preserve">
<style type="text/css">
<![CDATA[
	.st0{fill:#465652;}
	.st1{fill:#AAB9BA;}
	.st2{fill:#47C67B;}
	.st3{fill:#AAC8D1;}
	.st4{fill:none;stroke:#E83834;stroke-width:6;stroke-linecap:round;stroke-linejoin:round;stroke-miterlimit:10;}
	.st5{fill:#7BC67B;}
	.st6{fill:#7BC7FF;}
	.st7{fill:#7C34C1;}
	.st8{fill:#7C8D96;}
	.st9{fill:#AD2707;}
	.st10{fill:#ADB8BC;}
	.st11{fill:#107510;}
	.st12{fill:#7FE5D8;}
	.st13{fill:#AF4AD1;}
	.st14{fill:#E02B7E;}
	.st15{fill:#E04038;}
	.st16{fill:#AFD7DD;}
	.st17{fill:#E0A010;}
	.st18{fill:#E0D5A4;}
	.st19{fill:#12B2B2;}
	.st20{fill:#12D66B;}
	.st21{fill:#E1A9FF;}
	.st22{fill:#1362A8;}
	.st23{fill:#E2378D;}
	.st24{fill:#E29C37;}
	.st25{fill:#E2B90E;}
	.st26{fill:#E2BF91;}
	.st27{fill:#E2CBAA;}
	.st28{fill:#14A594;}
	.st29{fill:#E4E9ED;}
	.st30{fill:#4A5D60;}
	.st31{fill:#E5B076;}
	.st32{fill:#E5B1C4;}
	.st33{fill:#E5E4C3;}
	.st34{fill:#4B6466;}
	.st35{fill:#E6FF2E;}
	.st36{fill:#18AA67;}
	.st37{fill:#E86207;}
	.st38{fill:#E8A113;}
	.st39{fill:#E8B5A6;}
	.st40{fill:#E8E8ED;}
	.st41{fill:#4E5154;}
	.st42{fill:#E9F1F4;}
	.st43{fill:#4F4B48;}
	.st44{fill:#4F74E8;}
	.st45{fill:#808E93;}
	.st46{fill:#80949B;}
	.st47{fill:#80EDAC;}
	.st48{fill:#B122E0;}
	.st49{fill:#B2C4CC;}
	.st50{fill:#83D839;}
	.st51{fill:#B3C6C6;}
	.st52{fill:none;stroke:#33363A;stroke-width:3;stroke-linecap:round;stroke-linejoin:round;stroke-miterlimit:10;}
	.st53{fill:#1A8E1C;}
	.st54{fill:#1A93D6;}
	.st55{fill:#B50B0B;}
	.st56{fill:#1AD88F;}
	.st57{fill:#B5DAF4;}
	.st58{fill:#EA7B1F;}
	.st59{fill:#EA81BD;}
	.st60{fill:#87B8D6;}
	.st61{fill:#87C3F4;}
	.st62{fill:#EAC79D;}
	.st63{fill:#EADF11;}
	.st64{fill:#EAE4C5;}
	.st65{fill:#B78094;}
	.st66{fill:#8844D8;}
	.st67{fill:#EBF4F7;}
	.st68{fill:#893015;}
	.st69{fill:#89410B;}
	.st70{fill:#899BA3;}
	.st71{fill:#EDE3B9;}
	.st72{enable-background:new    ;}
	.st73{fill:#50FF9F;}
	.st74{fill:#EEDCF4;}
	.st75{fill:#EFA37D;}
	.st76{fill:#EFA3CC;}
	.st77{fill:#EFC99A;}
	.st78{fill:#54AF79;}
	.st79{fill:#BA503A;}
	.st80{fill:#BA8663;}
	.st81{fill:#8B4FE0;}
	.st82{fill:#58ED9B;}
	.st83{fill:#BC7DFF;}
	.st84{fill:#8D9AA3;}
	.st85{fill:#BCCAD3;}
	.st86{fill:#8DE4FF;}
	.st87{fill:#20B518;}
	.st88{fill:#BF44F2;}
	.st89{fill:#21CEA1;}
	.st90{fill:#BFDAE0;}
	.st91{fill:#F0FBFC;}
	.st92{fill:#F2D9A7;}
	.st93{fill:#F2EAC9;}
	.st94{fill:#24D1AF;}
	.st95{fill:#25931C;}
	.st96{fill:#F4C4B3;}
	.st97{fill:#F4D3A2;}
	.st98{fill:#F4D647;}
	.st99{fill:#F4D7B8;}
	.st100{fill:#F4EC8E;}
	.st101{fill:#5B524D;}
	.st102{fill:#F77819;}
	.st103{fill:#F79AE1;}
	.st104{fill:#5E707A;}
	.st105{fill:#F93585;}
	.st106{fill:#F95D5D;}
	.st107{fill:#F9C19B;}
	.st108{fill:#F9CB58;}
	.st109{fill:#F9D2B2;}
	.st110{fill:#F9F07D;}
	.st111{fill:#F9F1D2;}
	.st112{fill:#F9F4B7;}
	.st113{fill:#F9F9E4;}
	.st114{fill:#5F1DAA;}
	.st115{fill:#5F9AD6;}
	.st116{fill:#C0C0C4;}
	.st117{fill:#91EA57;}
	.st118{fill:#C12727;}
	.st119{fill:#C191A0;}
	.st120{fill:#923BB7;}
	.st121{fill:#93A0A3;}
	.st122{fill:#93F9EA;}
	.st123{fill:#93FF5A;}
	.st124{fill:#C4833D;}
	.st125{fill:#95A2A5;}
	.st126{fill:#965514;}
	.st127{fill:#96562C;}
	.st128{fill:#2AF42F;}
	.st129{fill:#C5D7DD;}
	.st130{fill:#C68510;}
	.st131{fill:#C6A86D;}
	.st132{fill:#C6BB8D;}
	.st133{fill:#2C9DCE;}
	.st134{fill:#FBFCF2;}
	.st135{fill:#FC70B0;}
	.st136{fill:#FCE6C8;}
	.st137{fill:#FCF7E3;}
	.st138{fill:#C90D6B;}
	.st139{fill:#FDFEFF;}
	.st140{fill:#FDFFDC;}
	.st141{fill:#FF1A1A;}
	.st142{fill:#FF5252;}
	.st143{fill:#FF5B00;}
	.st144{fill:#FF6155;}
	.st145{fill:#FF630D;}
	.st146{fill:#FF6666;}
	.st147{fill:#FF7676;}
	.st148{fill:#FF7900;}
	.st149{fill:#FF860D;}
	.st150{fill:#FF8B00;}
	.st151{fill:#FF8F8F;}
	.st152{fill:#FF900B;}
	.st153{fill:#FF908A;}
	.st154{fill:#FF960B;}
	.st155{fill:#FF9C0D;}
	.st156{fill:#FFA9D4;}
	.st157{fill:#FFAA00;}
	.st158{fill:#FFAD40;}
	.st159{fill:#FFAF10;}
	.st160{fill:#FFB000;}
	.st161{fill:#FFBE08;}
	.st162{fill:#FFBF31;}
	.st163{fill:#FFC200;}
	.st164{fill:#FFCAE8;}
	.st165{fill:#FFCCF5;}
	.st166{fill:#FFD00B;}
	.st167{fill:#FFD039;}
	.st168{fill:#FFD400;}
	.st169{fill:#FFD833;}
	.st170{fill:#FFDB80;}
	.st171{fill:#FFDDD2;}
	.st172{fill:#FFE6D4;}
	.st173{fill:#FFE6EB;}
	.st174{fill:#FFE98D;}
	.st175{fill:#FFECD2;}
	.st176{fill:#FFF1D9;}
	.st177{fill:#FFF24D;}
	.st178{fill:#FFF3C2;}
	.st179{fill:#FFF4C7;}
	.st180{fill:#FFF800;}
	.st181{fill:#FFF80D;}
	.st182{fill:#FFF9DE;}
	.st183{fill:#FFFBD7;}
	.st184{fill:#FFFBEB;}
	.st185{fill:#FFFCC0;}
	.st186{fill:#FFFCDC;}
	.st187{fill:#FFFFFA;}
	.st188{fill:#FFFFFF;}
	.st189{fill:#63797F;}
	.st190{fill:#65E529;}
	.st191{fill:#66310E;}
	.st192{fill:#663C17;}
	.st193{fill:#9A5AE5;}
	.st194{fill:#CA30EF;}
	.st195{fill:#6892FC;}
	.st196{fill:#9CFFC4;}
	.st197{fill:#CC4306;}
	.st198{fill:#CC549E;}
	.st199{fill:#9E3256;}
	.st200{fill:#CDFFBB;}
	.st201{fill:#CE86AF;}
	.st202{fill:#CED9DD;}

		.st203{fill:none;stroke:#33363A;stroke-width:3;stroke-linecap:round;stroke-linejoin:round;stroke-miterlimit:10;stroke-dasharray:6;}
	.st204{fill:#CFE1E2;}
	.st205{fill:#33363A;}
	.st206{fill:#34C166;}
	.st207{fill:#364B5B;}
	.st208{fill:#3662CE;}
	.st209{fill:#36C6FF;}
	.st210{fill:#6ADB9A;}
	.st211{fill:#6D5C4D;}
	.st212{fill:#6EBDF9;}
	.st213{fill:#0031FF;}
	.st214{fill:#0062FF;}
	.st215{fill:#0068FF;}
	.st216{fill:#0086FF;}
	.st217{fill:#009BE8;}
	.st218{fill:#00AAFF;}
	.st219{fill:#D271FF;}
	.st220{fill:#D363A9;}
	.st221{fill:#D3964C;}
	.st222{fill:#D3DFE2;}
	.st223{fill:#D3E0E2;}
	.st224{fill:#D3EFF4;}
	.st225{fill:#063B66;}
	.st226{fill:#D60909;}
	.st227{fill:#D61D1D;}
	.st228{fill:#D7F0FF;}
	.st229{fill:#09B285;}
	.st230{fill:#D8D593;}
	.st231{fill:#D8E2EA;}
	.st232{fill:#D8E5EA;}
	.st233{fill:#3E5054;}
	.st234{fill:#D988FF;}
	.st235{fill:#D9E7E8;}
	.st236{fill:#702252;}
	.st237{fill:#70D3E0;}
	.st238{fill:#A02FF2;}
	.st239{fill:#A2F255;}
	.st240{fill:#A35616;}
	.st241{fill:#A3CCCC;}
	.st242{fill:#0A6ADD;}
	.st243{fill:#A5145D;}
	.st244{fill:#A57555;}
	.st245{fill:#77D6FC;}
	.st246{fill:#7815CE;}
	.st247{fill:#A7BBC1;}
	.st248{fill:#DBD279;}
	.st249{fill:#0D5C9E;}
	.st250{fill:#A83C11;}
	.st251{fill:#A8633D;}
	.st252{fill:#A8A3E5;}
	.st253{fill:#DCE6EA;}
	.st254{fill:#DCE7EA;}
	.st255{fill:#A962E8;}
	.st256{fill:#DD2466;}
	.st257{fill:#DDC38A;}
	.st258{fill:#DDD2B1;}
	.st259{fill:#DFE7E8;}
	.st260{fill:#42B1E8;}
	.st261{fill:#436377;}
	.st262{fill:#43B530;}
]]>
</style>
<g>
	<g>
		<g>
			<g>
				<g>
					<path class="st98" d="M119.208,69.124c0,20.676-24.531,33.486-51.709,33.486S15.791,89.8,15.791,69.124
						c0-20.68,24.531-45.459,51.709-45.459S119.208,48.444,119.208,69.124z"/>
				</g>
				<g>
					<path class="st25" d="M119.208,69.124c0,20.676-24.531,32.152-51.709,32.152S15.791,89.8,15.791,69.124
						c0-20.68,24.531-34.928,51.709-34.928S119.208,48.444,119.208,69.124z"/>
				</g>
				<g>
					<path class="st25" d="M77.979,97.618c0,1.393-4.691,1.643-10.478,1.643c-5.787,0-10.479-0.25-10.479-1.643
						c0-1.395,4.691-5.037,10.479-5.037C73.288,92.581,77.979,96.224,77.979,97.618z"/>
				</g>
				<g>
					<path class="st17" d="M119.208,69.124c0-20.682-8.761,18.34-51.709,18.34c-42.947,0-51.709-39.021-51.709-18.34
						c0,11.986,9.772,20.486,20.332,29.422l21.76,19.484c5.31,4.574,13.924,4.574,19.234,0l21.758-19.482
						C109.437,88.444,119.208,81.063,119.208,69.124z"/>
				</g>
				<g>
					<path class="st100" d="M86.968,109.208c-4.733-5.432-11.697-8.869-19.468-8.869c-7.771,0-14.735,3.438-19.47,8.871l9.852,8.82
						c5.31,4.574,13.924,4.574,19.234,0L86.968,109.208z"/>
				</g>
				<g>
					<path class="st205" d="M48.03,110.71c-0.35,0-0.701-0.121-0.985-0.369c-0.625-0.544-0.69-1.491-0.146-2.116
						c5.197-5.965,12.706-9.386,20.601-9.386c7.894,0,15.402,3.42,20.599,9.384c0.544,0.624,0.479,1.572-0.146,2.116
						c-0.624,0.545-1.572,0.48-2.116-0.146c-4.627-5.31-11.311-8.354-18.337-8.354c-7.027,0-13.711,3.046-18.339,8.356
						C48.865,110.536,48.449,110.71,48.03,110.71z"/>
				</g>
				<g>
					<path class="st205" d="M93.776,97.61c-0.577,0-1.126-0.334-1.374-0.895c-0.334-0.758,0.009-1.644,0.767-1.978
						c15.15-6.683,24.539-13.299,24.539-25.614c0-23.262-28.077-43.959-50.209-43.959S17.291,45.862,17.291,69.124
						c0,12.315,9.39,18.932,24.54,25.614c0.758,0.334,1.101,1.22,0.767,1.978s-1.221,1.101-1.978,0.767
						c-16.255-7.17-26.329-14.414-26.329-28.358c0-21.139,24.553-46.959,53.209-46.959s53.209,25.82,53.209,46.959
						c0,13.944-10.074,21.189-26.328,28.358C94.184,97.569,93.978,97.61,93.776,97.61z"/>
				</g>
			</g>
		</g>
	</g>
	<g>
		<g>
			<path class="st205" d="M67.499,124.511c-3.838,0-7.674-1.258-10.596-3.773c-0.025-0.021-0.05-0.045-0.073-0.068l-33.856-33.34
				c-0.59-0.581-0.597-1.53-0.016-2.121c0.581-0.59,1.531-0.598,2.122-0.016l33.818,33.303c4.753,4.062,12.448,4.061,17.203,0.001
				l36.317-35.804c0.59-0.581,1.54-0.575,2.122,0.016c0.582,0.59,0.575,1.539-0.015,2.121l-36.354,35.84
				c-0.024,0.023-0.049,0.046-0.075,0.068C75.174,123.252,71.336,124.511,67.499,124.511z"/>
		</g>
	</g>
	<g>
		<g>
			<g>
				<g>
					<g>
						<path class="st25" d="M13.912,11.97C6.288,19.673,3.216,30.847,7.003,41.054C10.789,51.267,20.4,57.735,31.207,58.608
							c7.625-7.707,14.881-14.199,11.094-24.412C38.515,23.987,24.718,12.841,13.912,11.97z"/>
					</g>
					<g>
						<path class="st100" d="M13.912,11.97C6.288,19.673,3.216,30.847,7.003,41.054C10.789,51.267,20.4,57.735,31.207,58.608
							c7.625-7.707-6.504-5.998-10.291-16.211C17.128,32.188,24.718,12.841,13.912,11.97z"/>
					</g>
					<g>
						<path class="st248" d="M20.916,42.397c-3.098-8.354,1.414-22.818-2.761-28.281c-6.188,7.549-8.444,17.639-4.994,26.938
							C16.31,49.55,23.496,55.442,32.042,57.69C37.646,51.03,24.542,52.181,20.916,42.397z"/>
					</g>
					<g>
						<path class="st205" d="M31.207,60.108c-0.381,0-0.763-0.145-1.055-0.434c-0.589-0.583-0.594-1.532-0.011-2.121
							c1.716-1.735,1.819-2.531,1.784-2.793c-0.099-0.735-1.731-1.677-3.311-2.588c-3.045-1.757-7.217-4.162-9.104-9.254
							c-1.561-4.206-1.33-9.608-1.108-14.834c0.375-8.804,0.353-14.22-4.61-14.62c-0.826-0.066-1.441-0.79-1.375-1.615
							c0.066-0.826,0.782-1.432,1.616-1.375c8.094,0.652,7.724,9.338,7.367,17.738c-0.21,4.928-0.427,10.023,0.923,13.663
							c1.512,4.076,4.994,6.085,7.791,7.698c2.409,1.39,4.489,2.589,4.785,4.786c0.214,1.592-0.62,3.276-2.625,5.303
							C31.979,59.96,31.593,60.108,31.207,60.108z"/>
					</g>
					<g>
						<path class="st205" d="M31.208,60.108c-0.041,0-0.081-0.002-0.122-0.005C19.245,59.146,9.478,52.047,5.597,41.575
							c-3.884-10.47-1.107-22.219,7.249-30.66c0.311-0.315,0.74-0.473,1.187-0.44C25.384,11.39,41.225,26.15,45.219,36.923
							c0.288,0.776-0.108,1.64-0.885,1.928c-0.777,0.285-1.64-0.108-1.928-0.885c-3.545-9.56-17.78-23.062-27.926-24.427
							C7.342,21.1,5.013,31.378,8.41,40.532c3.472,9.366,12.253,15.72,22.917,16.581c0.826,0.066,1.441,0.79,1.375,1.616
							C32.638,59.514,31.982,60.108,31.208,60.108z"/>
					</g>
				</g>
			</g>
			<g>
				<path class="st205" d="M25.562,67.776c-0.341,0-0.683-0.115-0.964-0.352c-0.634-0.533-0.716-1.479-0.183-2.114
					c3.236-3.848,6.937-8.616,7.271-9.609c0.131-0.818,0.883-1.343,1.709-1.199c0.818,0.131,1.365,0.944,1.233,1.762
					c-0.256,1.597-4.447,6.852-7.918,10.979C26.414,67.595,25.99,67.776,25.562,67.776z"/>
			</g>
		</g>
		<g>
			<g>
				<g>
					<g>
						<path class="st25" d="M121.088,11.97c7.624,7.703,10.696,18.877,6.908,29.084c-3.785,10.213-13.397,16.682-24.203,17.555
							c-7.624-7.707-14.882-14.199-11.095-24.412C96.486,23.987,110.281,12.841,121.088,11.97z"/>
					</g>
					<g>
						<path class="st100" d="M121.088,11.97c7.624,7.703,10.696,18.877,6.908,29.084c-3.785,10.213-13.397,16.682-24.203,17.555
							c-7.624-7.707,6.505-5.998,10.292-16.211C117.871,32.188,110.281,12.841,121.088,11.97z"/>
					</g>
					<g>
						<path class="st248" d="M114.085,42.397c3.098-8.354-1.414-22.818,2.76-28.281c6.189,7.549,8.444,17.639,4.994,26.938
							c-3.148,8.496-10.335,14.389-18.882,16.637C97.353,51.03,110.457,52.181,114.085,42.397z"/>
					</g>
					<g>
						<path class="st205" d="M103.793,60.108c-0.387,0-0.773-0.148-1.066-0.445c-2.004-2.026-2.838-3.711-2.624-5.303
							c0.296-2.196,2.376-3.396,4.785-4.786c2.797-1.613,6.279-3.621,7.791-7.698c1.349-3.639,1.132-8.733,0.922-13.661
							c-0.358-8.4-0.729-17.088,7.367-17.74c0.837-0.054,1.55,0.549,1.616,1.375c0.066,0.825-0.549,1.549-1.375,1.615
							c-4.964,0.4-4.986,5.817-4.611,14.622c0.223,5.225,0.453,10.627-1.106,14.832c-1.888,5.092-6.059,7.497-9.105,9.254
							c-1.579,0.911-3.211,1.853-3.311,2.588c-0.035,0.262,0.068,1.059,1.784,2.793c0.583,0.589,0.578,1.538-0.012,2.121
							C104.556,59.964,104.175,60.108,103.793,60.108z"/>
					</g>
					<g>
						<path class="st205" d="M103.792,60.108c-0.774,0-1.43-0.595-1.494-1.379c-0.067-0.826,0.548-1.55,1.375-1.616
							c10.665-0.861,19.446-7.215,22.917-16.581c3.397-9.154,1.068-19.433-6.07-26.993c-10.146,1.365-24.381,14.867-27.926,24.427
							c-0.288,0.776-1.151,1.172-1.928,0.885c-0.777-0.288-1.173-1.151-0.885-1.928c3.994-10.772,19.835-25.533,31.187-26.448
							c0.444-0.03,0.875,0.125,1.187,0.44c8.356,8.442,11.134,20.191,7.249,30.66c-3.881,10.472-13.648,17.571-25.489,18.528
							C103.873,60.106,103.833,60.108,103.792,60.108z"/>
					</g>
				</g>
			</g>
			<g>
				<path class="st205" d="M109.438,67.776c-0.428,0-0.852-0.182-1.149-0.534c-3.471-4.127-7.663-9.382-7.918-10.979
					c-0.131-0.817,0.426-1.587,1.244-1.718c0.815-0.133,1.587,0.427,1.718,1.245c0.315,0.905,4.016,5.673,7.252,9.521
					c0.533,0.634,0.452,1.58-0.183,2.113C110.121,67.661,109.779,67.776,109.438,67.776z"/>
			</g>
		</g>
	</g>
	<g>
		<g>
			<path class="st205" d="M57.664,97.421c-0.598,0-1.163-0.359-1.396-0.949c-0.024-0.061-2.277-5.76-2.948-7.338
				c-1.661-1.355-13.445-7.672-21.52-11.848c-0.736-0.38-1.024-1.285-0.644-2.021c0.38-0.736,1.286-1.024,2.021-0.644
				C55.22,86.018,55.725,87.15,55.967,87.695c0.539,1.216,2.987,7.411,3.091,7.675c0.305,0.771-0.073,1.642-0.844,1.946
				C58.034,97.388,57.847,97.421,57.664,97.421z"/>
		</g>
		<g>
			<path class="st205" d="M77.337,97.421c-0.183,0-0.37-0.033-0.55-0.104c-0.771-0.305-1.148-1.176-0.844-1.946
				c0.104-0.264,2.551-6.46,3.091-7.674c0.241-0.544,0.745-1.678,22.787-13.074c0.735-0.381,1.641-0.092,2.021,0.644
				s0.092,1.641-0.644,2.021c-8.075,4.176-19.86,10.492-21.519,11.848c-0.672,1.576-2.923,7.277-2.947,7.338
				C78.5,97.062,77.935,97.421,77.337,97.421z"/>
		</g>
	</g>
	<g>
		<g>
			<path class="st205" d="M64.666,116.401c-0.618,0-1.197-0.385-1.415-1.001l-0.926-2.625c-0.275-0.781,0.134-1.638,0.916-1.914
				c0.782-0.271,1.638,0.135,1.914,0.916l0.926,2.625c0.275,0.781-0.134,1.638-0.916,1.914
				C65,116.374,64.831,116.401,64.666,116.401z"/>
		</g>
		<g>
			<path class="st205" d="M70.334,116.401c-0.166,0-0.334-0.027-0.499-0.085c-0.781-0.276-1.191-1.133-0.916-1.914l0.926-2.625
				c0.275-0.781,1.132-1.188,1.914-0.916c0.781,0.276,1.191,1.133,0.916,1.914l-0.926,2.625
				C71.532,116.017,70.953,116.401,70.334,116.401z"/>
		</g>
	</g>
</g>
</svg>
