<?xml version="1.0" encoding="iso-8859-1"?>
<!-- Generator: Adobe Illustrator 16.0.0, SVG Export Plug-In . SVG Version: 6.00 Build 0)  -->
<!DOCTYPE svg PUBLIC "-//W3C//DTD SVG 1.1//EN" "http://www.w3.org/Graphics/SVG/1.1/DTD/svg11.dtd">
<svg version="1.1" id="Capa_1" xmlns="http://www.w3.org/2000/svg" xmlns:xlink="http://www.w3.org/1999/xlink" x="0px" y="0px"
	 width="46.998px" height="46.999px" viewBox="0 0 46.998 46.999" style="enable-background:new 0 0 46.998 46.999;"
	 xml:space="preserve">
<g>
	<g>
		<path d="M25.357,4.534c-6.744,0-12.661,3.547-16.024,8.864H1.855C0.83,13.397,0,14.228,0,15.252v16.493
			C0,32.77,0.831,33.6,1.855,33.6h7.479c3.364,5.316,9.281,8.864,16.023,8.864c1.367,0,2.475-1.108,2.475-2.474V7.007
			C27.831,5.642,26.723,4.534,25.357,4.534z M22.883,37.298c-6.554-1.172-11.545-6.914-11.545-13.799s4.991-12.627,11.544-13.799
			L22.883,37.298L22.883,37.298z"/>
		<path d="M44.286,26.009c-1.752-1.752-4.082-2.717-6.56-2.717c-2.479,0-4.809,0.965-6.561,2.717c-3.617,3.617-3.617,9.503,0,13.12
			c1.752,1.752,4.082,2.717,6.561,2.717c2.478,0,4.808-0.965,6.56-2.717C47.902,35.512,47.902,29.626,44.286,26.009z M33.79,28.633
			c1.052-1.051,2.448-1.63,3.937-1.63c0.842,0,1.647,0.205,2.387,0.558l-7.393,7.392C31.74,32.884,32.082,30.341,33.79,28.633z
			 M41.663,36.505c-1.052,1.052-2.449,1.63-3.937,1.63c-0.843,0-1.646-0.205-2.386-0.557l7.392-7.393
			C43.713,32.254,43.371,34.796,41.663,36.505z"/>
	</g>
</g>
<g>
</g>
<g>
</g>
<g>
</g>
<g>
</g>
<g>
</g>
<g>
</g>
<g>
</g>
<g>
</g>
<g>
</g>
<g>
</g>
<g>
</g>
<g>
</g>
<g>
</g>
<g>
</g>
<g>
</g>
</svg>
