<?xml version="1.0" encoding="iso-8859-1"?>
<!-- Generator: Adobe Illustrator 16.0.0, SVG Export Plug-In . SVG Version: 6.00 Build 0)  -->
<!DOCTYPE svg PUBLIC "-//W3C//DTD SVG 1.1//EN" "http://www.w3.org/Graphics/SVG/1.1/DTD/svg11.dtd">
<svg version="1.1" id="Capa_1" xmlns="http://www.w3.org/2000/svg" xmlns:xlink="http://www.w3.org/1999/xlink" x="0px" y="0px"
	 width="46.999px" height="46.999px" viewBox="0 0 46.999 46.999" style="enable-background:new 0 0 46.999 46.999;"
	 xml:space="preserve">
<g>
	<g>
		<path d="M25.359,4.532c-6.745,0-12.662,3.547-16.025,8.864H1.855C0.83,13.396,0,14.227,0,15.252v16.495
			c0,1.025,0.831,1.855,1.855,1.855h7.479c3.365,5.317,9.282,8.864,16.025,8.864c1.367,0,2.474-1.108,2.474-2.474V7.006
			C27.834,5.64,26.727,4.532,25.359,4.532z M22.885,37.301c-6.554-1.172-11.546-6.915-11.546-13.801S16.33,10.871,22.885,9.699
			V37.301z"/>
		<path d="M41.441,10.056c-0.725-0.725-1.899-0.724-2.625,0c-0.725,0.724-0.725,1.899,0,2.625c5.963,5.967,5.963,15.675,0,21.64
			c-0.725,0.725-0.725,1.898,0,2.625c0.362,0.361,0.838,0.543,1.312,0.543s0.95-0.182,1.312-0.543
			C48.852,29.532,48.852,17.47,41.441,10.056z"/>
		<path d="M36.891,14.605c-0.726-0.725-1.9-0.725-2.625,0c-0.725,0.724-0.725,1.899,0,2.624c3.457,3.457,3.457,9.083,0,12.542
			c-0.724,0.725-0.724,1.898,0,2.625c0.362,0.361,0.838,0.543,1.312,0.543s0.949-0.182,1.312-0.543
			C41.794,27.489,41.794,19.508,36.891,14.605z"/>
		<path d="M32.341,19.155c-0.726-0.725-1.899-0.723-2.625,0.001c-0.724,0.726-0.723,1.9,0.002,2.625
			c0.459,0.458,0.711,1.067,0.711,1.718s-0.253,1.262-0.712,1.723c-0.725,0.725-0.725,1.898,0.001,2.623
			c0.362,0.362,0.836,0.543,1.312,0.543s0.951-0.181,1.313-0.544c1.16-1.159,1.8-2.704,1.8-4.345
			C34.141,21.857,33.502,20.314,32.341,19.155z"/>
	</g>
</g>
<g>
</g>
<g>
</g>
<g>
</g>
<g>
</g>
<g>
</g>
<g>
</g>
<g>
</g>
<g>
</g>
<g>
</g>
<g>
</g>
<g>
</g>
<g>
</g>
<g>
</g>
<g>
</g>
<g>
</g>
</svg>
